<svg width="24" height="24" viewBox="0 0 24 24" fill="none" xmlns="http://www.w3.org/2000/svg">
<path d="M18.59 8.12007L13.59 4.99507C12.6172 4.38706 11.3828 4.38706 10.41 4.99507L5.41 8.12007C4.53286 8.66828 4 9.62969 4 10.6641V14.3386C4 15.3729 4.53286 16.3344 5.41 16.8826L10.41 20.0076C11.3828 20.6156 12.6172 20.6156 13.59 20.0076L18.59 16.8826C19.4671 16.3344 20 15.3729 20 14.3386V10.6641C20 9.62969 19.4671 8.66828 18.59 8.12007Z" stroke="#3F8F7D" stroke-width="1.5" stroke-linecap="round"/>
<path d="M19.5 9.5L12.2572 13.8457C12.0989 13.9407 11.9011 13.9407 11.7428 13.8457L4.5 9.5" stroke="#3F8F7D" stroke-width="1.5" stroke-linecap="round"/>
<path d="M8 11.5L16 6.5" stroke="#3F8F7D" stroke-width="1.5" stroke-linecap="round"/>
<path d="M12 14V20.5" stroke="#3F8F7D" stroke-width="1.5" stroke-linecap="round"/>
</svg>
